<svg xmlns="http://www.w3.org/2000/svg" width="19" height="19" viewBox="0 0 19 19" fill="none">
  <mask id="mask0_58_1856" style="mask-type:alpha" maskUnits="userSpaceOnUse" x="0" y="0" width="19" height="19">
    <rect x="0.0812988" y="0.418579" width="18.0698" height="18.0698" fill="#D9D9D9"/>
  </mask>
  <g mask="url(#mask0_58_1856)">
    <path d="M8.06216 12.9168L13.3702 7.60886L12.3161 6.55479L8.06216 10.8087L5.91637 8.66292L4.8623 9.71699L8.06216 12.9168ZM9.11623 16.9825C8.07471 16.9825 7.09593 16.7849 6.17989 16.3896C5.26385 15.9944 4.46703 15.4579 3.78941 14.7803C3.11179 14.1027 2.57535 13.3059 2.18007 12.3898C1.7848 11.4738 1.58716 10.495 1.58716 9.45348C1.58716 8.41196 1.7848 7.43318 2.18007 6.51714C2.57535 5.6011 3.11179 4.80428 3.78941 4.12666C4.46703 3.44904 5.26385 2.9126 6.17989 2.51732C7.09593 2.12205 8.07471 1.92441 9.11623 1.92441C10.1577 1.92441 11.1365 2.12205 12.0526 2.51732C12.9686 2.9126 13.7654 3.44904 14.443 4.12666C15.1207 4.80428 15.6571 5.6011 16.0524 6.51714C16.4477 7.43318 16.6453 8.41196 16.6453 9.45348C16.6453 10.495 16.4477 11.4738 16.0524 12.3898C15.6571 13.3059 15.1207 14.1027 14.443 14.7803C13.7654 15.4579 12.9686 15.9944 12.0526 16.3896C11.1365 16.7849 10.1577 16.9825 9.11623 16.9825ZM9.11623 15.4767C10.7977 15.4767 12.222 14.8932 13.389 13.7262C14.556 12.5592 15.1395 11.135 15.1395 9.45348C15.1395 7.77199 14.556 6.34774 13.389 5.18073C12.222 4.01372 10.7977 3.43022 9.11623 3.43022C7.43474 3.43022 6.01049 4.01372 4.84348 5.18073C3.67648 6.34774 3.09297 7.77199 3.09297 9.45348C3.09297 11.135 3.67648 12.5592 4.84348 13.7262C6.01049 14.8932 7.43474 15.4767 9.11623 15.4767Z" fill="#1C1B1F"/>
  </g>
</svg>