<svg xmlns="http://www.w3.org/2000/svg" width="19" height="19" viewBox="0 0 19 19" fill="none">
  <mask id="mask0_58_1832" style="mask-type:alpha" maskUnits="userSpaceOnUse" x="0" y="0" width="19" height="19">
    <rect x="0.616211" y="0.418579" width="18.0698" height="18.0698" fill="#D9D9D9"/>
  </mask>
  <g mask="url(#mask0_58_1832)">
    <path d="M6.52653 14.8179C5.2215 14.2156 4.15801 13.3058 3.33609 12.0886C2.51417 10.8714 2.10321 9.49738 2.10321 7.96647C2.10321 7.64021 2.12203 7.32023 2.15967 7.00652C2.19732 6.6928 2.25379 6.38537 2.32908 6.0842L1.46323 6.59242L0.710327 5.29365L4.30546 3.22316L6.37595 6.79947L5.05837 7.55237L4.04194 5.78304C3.90391 6.12185 3.80038 6.47321 3.73137 6.83711C3.66235 7.20102 3.62784 7.57747 3.62784 7.96647C3.62784 9.18367 3.96038 10.2911 4.62544 11.2887C5.29051 12.2863 6.17518 13.0235 7.27944 13.5003L6.52653 14.8179ZM12.2863 5.68893V4.18311H14.3379C13.7607 3.46785 13.0643 2.91258 12.2486 2.51731C11.433 2.12203 10.5671 1.92439 9.6511 1.92439C8.96093 1.92439 8.30841 2.03105 7.69354 2.24438C7.07867 2.4577 6.51399 2.75886 5.9995 3.14787L5.24659 1.83028C5.87401 1.39108 6.55477 1.046 7.28885 0.795033C8.02294 0.544064 8.80408 0.418579 9.63228 0.418579C10.6236 0.418579 11.5741 0.603669 12.4839 0.973848C13.3937 1.34403 14.2062 1.88047 14.9214 2.58319V1.54794H16.4273V5.68893H12.2863ZM11.7969 16.9825L8.20175 14.912L10.2722 11.3357L11.571 12.0886L10.4981 13.9333C11.9788 13.7199 13.2117 13.0517 14.1968 11.9286C15.1818 10.8056 15.6744 9.48483 15.6744 7.96647C15.6744 7.82844 15.6712 7.69668 15.6649 7.5712C15.6587 7.44571 15.643 7.32023 15.6179 7.19474H17.1425C17.1551 7.32023 17.1645 7.44257 17.1708 7.56178C17.177 7.68099 17.1802 7.80962 17.1802 7.94765C17.1802 9.64169 16.6751 11.1569 15.6649 12.4933C14.6548 13.8297 13.3403 14.7301 11.7216 15.1944L12.5498 15.6838L11.7969 16.9825Z" fill="#1C1B1F"/>
  </g>
</svg>