<svg xmlns="http://www.w3.org/2000/svg" width="19" height="19" viewBox="0 0 19 19" fill="none">
  <mask id="mask0_58_1814" style="mask-type:alpha" maskUnits="userSpaceOnUse" x="0" y="0" width="19" height="19">
    <rect x="0.0581055" y="0.418579" width="18.0698" height="18.0698" fill="#D9D9D9"/>
  </mask>
  <g mask="url(#mask0_58_1814)">
    <path d="M2.50524 7.68412C2.4174 7.62138 2.36407 7.54295 2.34525 7.44884C2.32642 7.35473 2.35466 7.25747 2.42995 7.15709C3.20795 6.09047 4.18359 5.26227 5.35687 4.67249C6.53015 4.08272 7.78186 3.78783 9.112 3.78783C10.4421 3.78783 11.697 4.07331 12.8765 4.64426C14.0561 5.21521 15.0411 6.04028 15.8317 7.11944C15.907 7.23238 15.9321 7.33277 15.907 7.4206C15.8819 7.50844 15.8317 7.58373 15.7564 7.64648C15.6811 7.70922 15.5933 7.73745 15.4929 7.73118C15.3925 7.7249 15.3047 7.67157 15.2294 7.57119C14.5392 6.59241 13.6514 5.84264 12.566 5.32188C11.4805 4.80112 10.3292 4.54074 9.112 4.54074C7.8948 4.54074 6.75289 4.80112 5.68627 5.32188C4.61965 5.84264 3.73499 6.59241 3.03227 7.57119C2.95698 7.68412 2.86914 7.74686 2.76876 7.75941C2.66837 7.77196 2.58053 7.74686 2.50524 7.68412ZM11.239 16.9637C9.93392 16.6374 8.8673 15.9881 8.03911 15.0156C7.21091 14.043 6.79681 12.8541 6.79681 11.4487C6.79681 10.8212 7.02268 10.2942 7.47442 9.86755C7.92617 9.44091 8.47203 9.22758 9.112 9.22758C9.75197 9.22758 10.2978 9.44091 10.7496 9.86755C11.2013 10.2942 11.4272 10.8212 11.4272 11.4487C11.4272 11.8628 11.584 12.211 11.8978 12.4933C12.2115 12.7757 12.5816 12.9168 13.0083 12.9168C13.4349 12.9168 13.7988 12.7757 14.1 12.4933C14.4012 12.211 14.5518 11.8628 14.5518 11.4487C14.5518 9.99304 14.0184 8.76956 12.9518 7.77824C11.8852 6.78691 10.6115 6.29124 9.13082 6.29124C7.6501 6.29124 6.37644 6.78691 5.30982 7.77824C4.2432 8.76956 3.70989 9.98676 3.70989 11.4298C3.70989 11.731 3.73812 12.1075 3.79459 12.5592C3.85106 13.0109 3.98596 13.538 4.19928 14.1403C4.23693 14.2532 4.23379 14.3536 4.18987 14.4415C4.14595 14.5293 4.0738 14.592 3.97341 14.6297C3.87302 14.6673 3.77577 14.6642 3.68166 14.6203C3.58754 14.5764 3.52166 14.5042 3.48402 14.4038C3.29579 13.9144 3.1609 13.4282 3.07933 12.9451C2.99777 12.4619 2.95698 11.9631 2.95698 11.4487C2.95698 9.77971 3.56245 8.38056 4.77337 7.2512C5.9843 6.12184 7.43051 5.55716 9.112 5.55716C10.806 5.55716 12.2617 6.12184 13.4789 7.2512C14.6961 8.38056 15.3047 9.77971 15.3047 11.4487C15.3047 12.0761 15.0819 12.6 14.6365 13.0204C14.191 13.4407 13.6483 13.6509 13.0083 13.6509C12.3683 13.6509 11.8193 13.4407 11.3613 13.0204C10.9033 12.6 10.6743 12.0761 10.6743 11.4487C10.6743 11.0346 10.5206 10.6863 10.2131 10.404C9.90569 10.1217 9.53865 9.98049 9.112 9.98049C8.68535 9.98049 8.31831 10.1217 8.01087 10.404C7.70343 10.6863 7.54972 11.0346 7.54972 11.4487C7.54972 12.6659 7.91048 13.6823 8.63202 14.4979C9.35356 15.3136 10.2853 15.8845 11.4272 16.2108C11.5401 16.2484 11.6154 16.3112 11.6531 16.399C11.6907 16.4869 11.697 16.581 11.6719 16.6814C11.6468 16.7692 11.5966 16.8445 11.5213 16.9072C11.446 16.97 11.3519 16.9888 11.239 16.9637ZM4.95219 3.75018C4.8518 3.81293 4.75141 3.82861 4.65102 3.79724C4.55064 3.76587 4.47535 3.69999 4.42515 3.5996C4.37496 3.49921 4.36241 3.40824 4.38751 3.32667C4.4126 3.24511 4.47535 3.17295 4.57573 3.11021C5.27845 2.73376 6.01253 2.44514 6.77799 2.24437C7.54344 2.04359 8.32145 1.94321 9.112 1.94321C9.9151 1.94321 10.6994 2.04046 11.4648 2.23496C12.2303 2.42946 12.9706 2.70866 13.6859 3.07257C13.7988 3.13531 13.8647 3.2106 13.8835 3.29844C13.9024 3.38628 13.893 3.47412 13.8553 3.56196C13.8177 3.6498 13.7549 3.71881 13.6671 3.76901C13.5792 3.8192 13.4726 3.81293 13.3471 3.75018C12.682 3.41138 11.995 3.151 11.286 2.96904C10.577 2.78709 9.85236 2.69611 9.112 2.69611C8.38419 2.69611 7.66893 2.78082 6.96621 2.95022C6.2635 3.11962 5.59216 3.38628 4.95219 3.75018ZM7.17326 16.7002C6.4329 15.9222 5.86509 15.1285 5.46981 14.3191C5.07453 13.5097 4.8769 12.5529 4.8769 11.4487C4.8769 10.3067 5.29099 9.34365 6.11919 8.55938C6.94739 7.7751 7.94499 7.38296 9.112 7.38296C10.279 7.38296 11.2829 7.7751 12.1236 8.55938C12.9644 9.34365 13.3847 10.3067 13.3847 11.4487C13.3847 11.5616 13.3502 11.6526 13.2812 11.7216C13.2122 11.7906 13.1212 11.8251 13.0083 11.8251C12.9079 11.8251 12.8201 11.7906 12.7448 11.7216C12.6695 11.6526 12.6318 11.5616 12.6318 11.4487C12.6318 10.5075 12.2836 9.72011 11.5872 9.08641C10.8907 8.45271 10.0657 8.13587 9.112 8.13587C8.15832 8.13587 7.33953 8.45271 6.65564 9.08641C5.97175 9.72011 5.6298 10.5075 5.6298 11.4487C5.6298 12.4651 5.80548 13.3278 6.15684 14.0368C6.50819 14.7458 7.02268 15.4579 7.7003 16.1731C7.77559 16.2484 7.81323 16.3363 7.81323 16.4367C7.81323 16.5371 7.77559 16.6249 7.7003 16.7002C7.62501 16.7755 7.53717 16.8131 7.43678 16.8131C7.33639 16.8131 7.24855 16.7755 7.17326 16.7002ZM12.8577 15.4202C11.7409 15.4202 10.7715 15.0438 9.94961 14.2909C9.12768 13.538 8.71672 12.5906 8.71672 11.4487C8.71672 11.3483 8.75123 11.2604 8.82025 11.1851C8.88926 11.1098 8.98024 11.0722 9.09318 11.0722C9.20611 11.0722 9.29709 11.1098 9.3661 11.1851C9.43512 11.2604 9.46963 11.3483 9.46963 11.4487C9.46963 12.3898 9.80844 13.1615 10.4861 13.7638C11.1637 14.3662 11.9542 14.6673 12.8577 14.6673C12.933 14.6673 13.0397 14.6611 13.1777 14.6485C13.3157 14.636 13.46 14.6171 13.6106 14.592C13.7236 14.5669 13.8208 14.5826 13.9024 14.6391C13.9839 14.6956 14.0373 14.7803 14.0624 14.8932C14.0875 14.9936 14.0686 15.0814 14.0059 15.1567C13.9432 15.232 13.8616 15.2822 13.7612 15.3073C13.5353 15.37 13.3377 15.4046 13.1683 15.4108C12.9989 15.4171 12.8954 15.4202 12.8577 15.4202Z" fill="#1C1B1F"/>
  </g>
</svg>