<svg width="170" height="46" viewBox="0 0 170 46" fill="none" xmlns="http://www.w3.org/2000/svg">
<g clip-path="url(#clip0_56_10683)">
<path d="M22.9429 1.89143L19.6646 0L0 11.3542V34.0607L0.755829 34.4982L3.27836 35.954L19.6646 45.4149L26.2194 41.6301V37.8454V18.9236L13.1097 11.3542L9.83322 13.2456L22.9429 20.8151V39.7387L19.6646 41.6301L3.27836 32.1693V13.2456L19.6646 3.78473L36.0527 13.2456V35.954L39.331 34.0607V11.3542L22.9429 1.89143Z" fill="#511CF7"/>
<path d="M16.388 9.46092L29.4978 17.0304V39.7387L32.7761 37.8455V15.1389L19.6645 7.56949L16.388 9.46092Z" fill="#511CF7"/>
<path d="M75.5455 24.2591V34.1892H72.3882V24.6799C72.3882 21.5914 70.3534 20.5749 68.6332 20.5749C66.9131 20.5749 64.9136 21.5933 64.9136 24.6799V34.1892H61.7563V24.6799C61.7563 21.5914 59.7215 20.5749 57.966 20.5749C56.2104 20.5749 54.2464 21.5933 54.2464 24.6799V34.1892H51.0891V18.0487H54.2464V19.9792C55.4044 18.4713 57.158 17.8029 58.8782 17.8029C60.913 17.8029 63.0185 18.5755 64.1057 20.6457C65.3344 18.5402 67.5442 17.8029 69.5436 17.8029C72.4906 17.8029 75.5437 19.417 75.5437 24.2591H75.5455Z" fill="#1C1C1C"/>
<path d="M94.1769 18.0487V34.1892H91.0196V31.6983C89.8262 33.4184 87.9665 34.4703 85.4756 34.4703C80.9145 34.4703 77.6511 30.9257 77.6511 26.1189C77.6511 21.3122 80.9145 17.8029 85.4756 17.8029C87.9665 17.8029 89.8262 18.8548 91.0196 20.5396V18.0487H94.1769ZM91.0196 26.1189C91.0196 22.9951 88.9848 20.7853 85.8963 20.7853C82.8078 20.7853 80.7377 22.9951 80.7377 26.1189C80.7377 29.2428 82.7725 31.4879 85.8963 31.4879C89.0201 31.4879 91.0196 29.2074 91.0196 26.1189Z" fill="#1C1C1C"/>
<path d="M105.825 17.8029V20.7853C103.649 20.8207 100.142 21.7683 100.142 25.9086V34.1892H96.9842V18.0487H100.142V21.031C101.406 18.8213 103.58 17.8383 105.825 17.8029Z" fill="#1C1C1C"/>
<path d="M108.281 34.1892V11.3821H111.473L111.438 34.1892H108.281Z" fill="#1C1C1C"/>
<path d="M113.404 26.1189C113.404 21.2414 116.807 17.7322 121.685 17.7322C126.562 17.7322 129.894 21.2414 129.894 26.1189C129.894 30.9964 126.527 34.5056 121.685 34.5056C116.842 34.5056 113.404 30.9276 113.404 26.1189ZM126.772 26.1189C126.772 23.0305 124.738 20.7853 121.685 20.7853C118.631 20.7853 116.561 23.0305 116.561 26.1189C116.561 29.2074 118.596 31.4879 121.685 31.4879C124.773 31.4879 126.772 29.172 126.772 26.1189Z" fill="#1C1C1C"/>
<path d="M154.422 18.0487L149.053 34.1892H145.931L142.14 23.0305L138.316 34.1892H135.195L129.896 18.0487H133.195L136.95 29.7324L141.02 18.0487H143.335L147.336 29.7324L151.126 18.0487H154.425H154.422Z" fill="#1C1C1C"/>
<path d="M170 26.1189V27.0311H157.298C157.614 29.9092 159.649 31.7672 162.456 31.7672C164.772 31.7672 166.247 30.7153 167.018 29.5909L169.227 31.1696C167.824 33.2044 165.403 34.5038 162.455 34.5038C157.542 34.5038 154.245 30.9257 154.245 26.1171C154.245 21.3084 157.402 17.7657 162.244 17.7657C167.086 17.7657 169.998 21.3103 169.998 26.1171L170 26.1189ZM157.298 24.961H167.053C166.668 22.2597 164.947 20.2938 162.246 20.2938C159.545 20.2938 157.685 22.1536 157.298 24.961Z" fill="#1C1C1C"/>
</g>
<defs>
<clipPath id="clip0_56_10683">
<rect width="170" height="45.4149" fill="white"/>
</clipPath>
</defs>
</svg>
