<svg width="33" height="33" viewBox="0 0 33 33" fill="none" xmlns="http://www.w3.org/2000/svg">
<g id="Layer 2">
<g id="Layer 1">
<path id="path16" d="M4.86486 3.43264L4.09082 2.63754C4.06335 2.99166 3.917 3.32611 3.67553 3.58658C3.43405 3.84705 3.11162 4.01827 2.76059 4.07242L3.55701 4.81092L32.0025 31.3305L4.86486 3.43264ZM6.74271 11.1191V26.9515C7.01316 26.6668 7.38081 26.4943 7.77261 26.4682C8.16442 26.4421 8.5517 26.5644 8.85752 26.8107V16.1879L26.0017 32.901H28.9551L6.74271 11.1191ZM26.7099 7.46084C26.3015 7.46239 25.9086 7.30466 25.6147 7.02116V17.7367L8.78709 1.02494H5.53162L27.7315 22.7601V7.08238C27.4474 7.32709 27.0848 7.46143 26.7099 7.46084Z" fill="#349EA3"/>
<path id="path18" d="M2.5196 7.74442e-07C2.02163 -0.00038972 1.53473 0.146901 1.12048 0.423245C0.706229 0.69959 0.383231 1.09257 0.192337 1.5525C0.0014427 2.01242 -0.0487732 2.51863 0.0480401 3.00709C0.144853 3.49556 0.384347 3.94434 0.736233 4.29669C1.08812 4.64903 1.53659 4.88911 2.02493 4.98657C2.51327 5.08402 3.01954 5.03446 3.47971 4.84417C3.93988 4.65388 4.33329 4.33139 4.61017 3.9175C4.88706 3.50361 5.03499 3.01691 5.03525 2.51894C5.03507 1.8515 4.77008 1.2114 4.29844 0.739136C3.8268 0.266875 3.18704 0.0010469 2.5196 7.74442e-07ZM2.75853 4.06769C2.67953 4.08042 2.59961 4.08659 2.5196 4.08612C2.20789 4.08651 1.90307 3.99444 1.6437 3.82157C1.38432 3.64869 1.18205 3.40277 1.06246 3.11491C0.942879 2.82706 0.911354 2.5102 0.971877 2.20443C1.0324 1.89865 1.18225 1.6177 1.40248 1.3971C1.62271 1.17651 1.90341 1.02619 2.20908 0.965152C2.51476 0.904117 2.83167 0.935112 3.11972 1.05422C3.40777 1.17332 3.65403 1.37518 3.82734 1.63427C4.00065 1.89335 4.09323 2.19802 4.09336 2.50973V2.63281C4.06557 2.98757 3.91852 3.32247 3.67615 3.58301C3.43377 3.84354 3.11035 4.01438 2.75853 4.06769Z" fill="#349EA3"/>
<path id="path20" d="M26.7084 3.3701C26.051 3.38513 25.4256 3.65685 24.966 4.12711C24.5063 4.59737 24.249 5.22883 24.249 5.8864C24.249 6.54397 24.5063 7.17544 24.966 7.6457C25.4256 8.11596 26.051 8.38767 26.7084 8.40271C27.0605 8.40386 27.4088 8.3298 27.7299 8.1855C28.2573 7.9517 28.6883 7.54376 28.9507 7.03003C29.2131 6.5163 29.2909 5.928 29.1712 5.3637C29.0515 4.79939 28.7415 4.29338 28.2931 3.93043C27.8447 3.56748 27.2853 3.36965 26.7084 3.3701ZM27.7299 7.08236C27.457 7.31524 27.1127 7.44788 26.754 7.45829C26.3954 7.4687 26.044 7.35625 25.758 7.13957C25.472 6.9229 25.2687 6.61502 25.1816 6.26695C25.0946 5.91888 25.1291 5.55151 25.2795 5.22574C25.4298 4.89997 25.687 4.63535 26.0083 4.47574C26.3296 4.31612 26.6958 4.2711 27.0463 4.34812C27.3967 4.42515 27.7103 4.6196 27.935 4.89925C28.1598 5.1789 28.2823 5.52696 28.2822 5.88574C28.2821 6.11326 28.2327 6.33806 28.1373 6.54464C28.042 6.75122 27.903 6.93467 27.7299 7.08236Z" fill="#349EA3"/>
<path id="path22" d="M8.85568 25.723C8.35743 25.5121 7.80449 25.4674 7.2788 25.5953C6.75311 25.7233 6.28263 26.0172 5.93707 26.4336C5.59151 26.8499 5.38926 27.3664 5.36029 27.9067C5.33132 28.447 5.47716 28.9822 5.77621 29.4331C6.07527 29.884 6.51162 30.2265 7.02061 30.41C7.5296 30.5934 8.08415 30.6081 8.6021 30.4517C9.12004 30.2952 9.57383 29.9761 9.8962 29.5416C10.2186 29.1071 10.3924 28.5803 10.3919 28.0393C10.392 27.5447 10.2463 27.061 9.97304 26.6487C9.69982 26.2364 9.31119 25.9138 8.85568 25.7211V25.723ZM7.86837 29.615C7.55734 29.6143 7.25347 29.5215 6.99514 29.3483C6.73682 29.1751 6.53561 28.9292 6.41695 28.6417C6.29828 28.3542 6.26747 28.0379 6.3284 27.7329C6.38934 27.4279 6.53929 27.1478 6.75931 26.928C6.97934 26.7081 7.25958 26.5584 7.56464 26.4977C7.8697 26.437 8.1859 26.4681 8.47331 26.587C8.76072 26.7059 9.00645 26.9073 9.17947 27.1658C9.35249 27.4243 9.44503 27.7282 9.44543 28.0393C9.44551 28.2461 9.4048 28.451 9.32562 28.6421C9.24644 28.8332 9.13034 29.0068 8.98398 29.153C8.83761 29.2991 8.66386 29.415 8.47265 29.494C8.28145 29.5729 8.07655 29.6134 7.86969 29.613L7.86837 29.615Z" fill="#349EA3"/>
</g>
</g>
</svg>
