<svg xmlns="http://www.w3.org/2000/svg" width="20" height="19" viewBox="0 0 20 19" fill="none">
  <mask id="mask0_58_1844" style="mask-type:alpha" maskUnits="userSpaceOnUse" x="0" y="0" width="20" height="19">
    <rect x="0.988281" y="0.418579" width="18.0698" height="18.0698" fill="#D9D9D9"/>
  </mask>
  <g mask="url(#mask0_58_1844)">
    <path d="M4.75266 16.9825V15.4767H9.2701V12.4651H7.76429C6.72277 12.4651 5.83497 12.098 5.10088 11.3639C4.3668 10.6299 3.99976 9.74206 3.99976 8.70054C3.99976 7.94763 4.20681 7.25433 4.6209 6.62064C5.035 5.98694 5.59341 5.52578 6.29612 5.23717C6.40906 4.29603 6.82002 3.50862 7.52901 2.87492C8.23799 2.24123 9.06933 1.92438 10.023 1.92438C10.9767 1.92438 11.808 2.24123 12.517 2.87492C13.226 3.50862 13.637 4.29603 13.7499 5.23717C14.4526 5.52578 15.011 5.98694 15.4251 6.62064C15.8392 7.25433 16.0463 7.94763 16.0463 8.70054C16.0463 9.74206 15.6792 10.6299 14.9451 11.3639C14.2111 12.098 13.3233 12.4651 12.2817 12.4651H10.7759V15.4767H15.2934V16.9825H4.75266ZM7.76429 10.9593H12.2817C12.9092 10.9593 13.4425 10.7397 13.8817 10.3005C14.3209 9.86127 14.5405 9.32796 14.5405 8.70054C14.5405 8.2488 14.4118 7.8347 14.1546 7.45824C13.8973 7.08179 13.5617 6.80572 13.1476 6.63005L12.357 6.29124L12.2441 5.4254C12.1688 4.86071 11.921 4.38701 11.5006 4.00428C11.0802 3.62156 10.5877 3.43019 10.023 3.43019C9.45833 3.43019 8.9658 3.62156 8.54543 4.00428C8.12506 4.38701 7.87723 4.86071 7.80194 5.4254L7.689 6.29124L6.89845 6.63005C6.48435 6.80572 6.14868 7.08179 5.89143 7.45824C5.63419 7.8347 5.50557 8.2488 5.50557 8.70054C5.50557 9.32796 5.72517 9.86127 6.16436 10.3005C6.60356 10.7397 7.13687 10.9593 7.76429 10.9593Z" fill="#1C1B1F"/>
  </g>
</svg>