<svg width="24" height="24" viewBox="0 0 24 24" fill="none" xmlns="http://www.w3.org/2000/svg">
<g id="qr_code_2">
<mask id="mask0_12_6260" style="mask-type:alpha" maskUnits="userSpaceOnUse" x="0" y="0" width="24" height="24">
<rect id="Bounding box" width="24" height="24" fill="#C4C4C4"/>
</mask>
<g mask="url(#mask0_12_6260)">
<path id="qr_code_2_2" d="M13 21V19H15V21H13ZM11 19V14H13V19H11ZM19 16V12H21V16H19ZM17 12V10H19V12H17ZM5 14V12H7V14H5ZM3 12V10H5V12H3ZM12 5V3H14V5H12ZM4.5 7.5H7.5V4.5H4.5V7.5ZM3 9V3H9V9H3ZM4.5 19.5H7.5V16.5H4.5V19.5ZM3 21V15H9V21H3ZM16.5 7.5H19.5V4.5H16.5V7.5ZM15 9V3H21V9H15ZM17 21V18H15V16H19V19H21V21H17ZM13 14V12H17V14H13ZM9 14V12H7V10H13V12H11V14H9ZM10 9V5H12V7H14V9H10ZM5.25 6.75V5.25H6.75V6.75H5.25ZM5.25 18.75V17.25H6.75V18.75H5.25ZM17.25 6.75V5.25H18.75V6.75H17.25Z" fill="#5A5A5A"/>
</g>
</g>
</svg>
